<svg width="256" height="256" viewBox="0 0 256 256" fill="none" xmlns="http://www.w3.org/2000/svg">
<g clip-path="url(#clip0_1030_501)">
<g filter="url(#filter0_d_1030_501)">
<rect x="10" y="10" width="236" height="236" rx="36" fill="#3164E4"/>
</g>
<path d="M72.9514 109.695C75.1161 96.6538 81.839 84.804 91.9232 76.2557C102.007 67.7075 114.798 63.0156 128.018 63.0156C141.238 63.0156 154.028 67.7075 164.112 76.2557C174.197 84.804 180.919 96.6538 183.084 109.695C193.793 110.708 203.701 115.805 210.752 123.928C217.804 132.051 221.457 142.578 220.955 153.323C220.452 164.068 215.832 174.207 208.053 181.636C200.275 189.066 189.934 193.216 179.177 193.225H76.8581C66.1013 193.216 55.7609 189.066 47.9822 181.636C40.2035 174.207 35.5836 164.068 35.081 153.323C34.5785 142.578 38.2318 132.051 45.2831 123.928C52.3344 115.805 62.2424 110.708 72.9514 109.695Z" fill="url(#paint0_linear_1030_501)"/>
<path d="M118.716 151.367C118.716 156.864 117.633 162.307 115.53 167.385C113.426 172.463 110.343 177.078 106.456 180.965C102.569 184.852 97.9547 187.935 92.8762 190.038C87.7978 192.142 82.3548 193.225 76.8579 193.225C71.361 193.225 65.918 192.142 60.8396 190.038C55.7611 187.935 51.1468 184.852 47.2599 180.965C43.373 177.078 40.2898 172.463 38.1862 167.385C36.0827 162.307 35 156.864 35 151.367C35 140.265 39.41 129.619 47.2599 121.769C55.1098 113.919 65.7565 109.509 76.8579 109.509C87.9593 109.509 98.606 113.919 106.456 121.769C114.306 129.619 118.716 140.265 118.716 151.367Z" fill="url(#paint1_linear_1030_501)" fill-opacity="0.3"/>
<path d="M128.018 174.621C138.666 174.62 149.092 171.573 158.065 165.839C167.038 160.105 174.183 151.924 178.657 142.261C183.131 132.598 184.748 121.857 183.316 111.305C181.884 100.754 177.463 90.8319 170.576 82.711C163.688 74.5901 154.621 68.6091 144.444 65.4739C134.268 62.3387 123.407 62.1802 113.143 65.0171C102.88 67.854 93.6421 73.5679 86.5204 81.4843C79.3987 89.4008 74.6904 99.1894 72.9512 109.695C74.2348 109.571 75.5371 109.509 76.8579 109.509C84.2326 109.508 91.4767 111.455 97.8569 115.153C104.237 118.851 109.527 124.17 113.191 130.57C116.855 136.97 118.763 144.224 118.722 151.599C118.681 158.974 116.693 166.206 112.958 172.565C117.861 173.934 122.927 174.626 128.018 174.621Z" fill="url(#paint2_linear_1030_501)" fill-opacity="0.3"/>
<path d="M128.018 174.621C138.666 174.62 149.092 171.573 158.065 165.839C167.038 160.105 174.183 151.924 178.657 142.261C183.131 132.598 184.748 121.857 183.316 111.305C181.884 100.754 177.463 90.8319 170.576 82.711C163.688 74.5901 154.621 68.6091 144.444 65.4739C134.268 62.3387 123.407 62.1802 113.143 65.0171C102.88 67.854 93.6421 73.5679 86.5204 81.4843C79.3987 89.4008 74.6904 99.1894 72.9512 109.695C74.2348 109.571 75.5371 109.509 76.8579 109.509C84.2326 109.508 91.4767 111.455 97.8569 115.153C104.237 118.851 109.527 124.17 113.191 130.57C116.855 136.97 118.763 144.224 118.722 151.599C118.681 158.974 116.693 166.206 112.958 172.565C117.861 173.934 122.927 174.626 128.018 174.621Z" fill="url(#paint3_radial_1030_501)"/>
<path d="M72.9514 109.695C75.1161 96.6538 81.839 84.804 91.9232 76.2557C102.007 67.7075 114.798 63.0156 128.018 63.0156C141.238 63.0156 154.028 67.7075 164.112 76.2557C174.197 84.804 180.919 96.6538 183.084 109.695C193.793 110.708 203.701 115.805 210.752 123.928C217.804 132.051 221.457 142.578 220.955 153.323C220.452 164.068 215.832 174.207 208.053 181.636C200.275 189.066 189.934 193.216 179.177 193.225H76.8581C66.1013 193.216 55.7609 189.066 47.9822 181.636C40.2035 174.207 35.5836 164.068 35.081 153.323C34.5785 142.578 38.2318 132.051 45.2831 123.928C52.3344 115.805 62.2424 110.708 72.9514 109.695Z" fill="url(#paint4_radial_1030_501)" fill-opacity="0.5"/>
<g filter="url(#filter1_d_1030_501)">
<rect x="184" y="24" width="48" height="48" rx="24" fill="white"/>
</g>
<path d="M218.014 54.8866C216.891 58.2017 214.931 59.4361 213.897 59.9641C214.842 59.9871 216.677 60.2373 218.763 59.0037C221.757 57.0254 222.333 54.4951 222.399 53.8173C222.452 53.2663 222.399 52.6373 222.399 50.5022C222.238 50.1464 221.917 49.0051 220.206 49.0051C218.838 49.0051 218.175 50.1279 218.175 50.7161C218.175 52.2132 218.228 53.3895 218.014 54.8866Z" fill="url(#paint5_linear_1030_501)"/>
<path d="M211.063 54.1915C210.849 56.8436 208.728 59.1463 207.695 59.9661C208.639 60.0018 210.935 59.7523 212.56 58.469C214.592 56.865 215.382 54.7628 215.448 53.7103C215.501 52.8548 215.501 47.508 215.501 44.1929C215.341 43.6404 214.678 42.5354 213.309 42.5354C211.94 42.5354 211.348 43.6404 211.224 44.1929C211.259 46.4208 211.277 51.5395 211.063 54.1915Z" fill="url(#paint6_linear_1030_501)"/>
<path d="M203.631 53.2291V38.3648C203.631 37.5093 204.08 35.8411 205.877 36.0122C207.673 36.1833 207.889 37.5093 207.909 38.3648C207.98 41.4125 208.08 48.6522 207.909 53.2291C207.267 57.8809 203.524 59.5027 201.492 59.8592C198.338 60.4126 193.906 58.469 193.151 54.1381C191.921 47.0802 198.552 44.7811 200.049 44.9415C201.225 44.8962 201.475 45.5296 201.492 45.8504V49.3794C199.567 48.8447 196.627 50.2883 197.375 53.2291C198.552 56.865 202.883 56.0095 203.631 53.2291Z" fill="url(#paint7_linear_1030_501)"/>
<circle cx="179" cy="171" r="27" stroke="#3164E4" stroke-width="10"/>
<path d="M173.129 156.494L167.501 162.051C167.262 162.287 167.099 162.587 167.033 162.915C166.967 163.242 167.001 163.582 167.13 163.89L167.188 164.012C167.332 164.289 167.549 164.521 167.818 164.683C168.086 164.845 168.395 164.931 168.709 164.931H170.919L170.919 177.314C170.919 177.761 171.099 178.191 171.419 178.507C171.74 178.824 172.174 179.001 172.628 179.001H176.046L176.174 178.997C176.604 178.965 177.006 178.774 177.3 178.462C177.593 178.15 177.756 177.74 177.755 177.314V164.931H179.966C180.304 164.931 180.635 164.832 180.916 164.647C181.197 164.461 181.416 164.198 181.545 163.889C181.674 163.581 181.708 163.242 181.642 162.915C181.576 162.587 181.414 162.287 181.175 162.051L175.546 156.494C175.226 156.178 174.791 156 174.338 156C173.885 156 173.45 156.178 173.129 156.494Z" fill="#3164E4"/>
<path d="M186.562 186.231L191.165 181.629C191.36 181.433 191.493 181.184 191.547 180.913C191.601 180.642 191.574 180.361 191.468 180.105L191.42 180.004C191.303 179.775 191.125 179.582 190.905 179.448C190.686 179.314 190.434 179.243 190.176 179.243H188.369L188.369 171.616C188.369 171.245 188.222 170.889 187.96 170.627C187.698 170.365 187.342 170.218 186.972 170.218H184.176L184.072 170.221C183.72 170.248 183.391 170.406 183.152 170.665C182.912 170.923 182.779 171.263 182.779 171.616L182.779 179.243H180.972C180.695 179.243 180.425 179.325 180.195 179.478C179.965 179.632 179.786 179.85 179.681 180.106C179.575 180.361 179.547 180.642 179.601 180.913C179.655 181.184 179.788 181.433 179.983 181.629L184.586 186.231C184.848 186.493 185.203 186.64 185.574 186.64C185.945 186.64 186.3 186.493 186.562 186.231Z" fill="#3164E4"/>
</g>
<defs>
<filter id="filter0_d_1030_501" x="-4" y="-4" width="264" height="264" filterUnits="userSpaceOnUse" color-interpolation-filters="sRGB">
<feFlood flood-opacity="0" result="BackgroundImageFix"/>
<feColorMatrix in="SourceAlpha" type="matrix" values="0 0 0 0 0 0 0 0 0 0 0 0 0 0 0 0 0 0 127 0" result="hardAlpha"/>
<feMorphology radius="2" operator="dilate" in="SourceAlpha" result="effect1_dropShadow_1030_501"/>
<feOffset/>
<feGaussianBlur stdDeviation="6"/>
<feComposite in2="hardAlpha" operator="out"/>
<feColorMatrix type="matrix" values="0 0 0 0 0.192157 0 0 0 0 0.392157 0 0 0 0 0.894118 0 0 0 0.56 0"/>
<feBlend mode="normal" in2="BackgroundImageFix" result="effect1_dropShadow_1030_501"/>
<feBlend mode="normal" in="SourceGraphic" in2="effect1_dropShadow_1030_501" result="shape"/>
</filter>
<filter id="filter1_d_1030_501" x="174" y="14" width="68" height="68" filterUnits="userSpaceOnUse" color-interpolation-filters="sRGB">
<feFlood flood-opacity="0" result="BackgroundImageFix"/>
<feColorMatrix in="SourceAlpha" type="matrix" values="0 0 0 0 0 0 0 0 0 0 0 0 0 0 0 0 0 0 127 0" result="hardAlpha"/>
<feMorphology radius="2" operator="dilate" in="SourceAlpha" result="effect1_dropShadow_1030_501"/>
<feOffset/>
<feGaussianBlur stdDeviation="4"/>
<feComposite in2="hardAlpha" operator="out"/>
<feColorMatrix type="matrix" values="0 0 0 0 1 0 0 0 0 1 0 0 0 0 1 0 0 0 0.25 0"/>
<feBlend mode="normal" in2="BackgroundImageFix" result="effect1_dropShadow_1030_501"/>
<feBlend mode="normal" in="SourceGraphic" in2="effect1_dropShadow_1030_501" result="shape"/>
</filter>
<linearGradient id="paint0_linear_1030_501" x1="41.6417" y1="87.4174" x2="124.995" y2="211.131" gradientUnits="userSpaceOnUse">
<stop stop-color="white" stop-opacity="0"/>
<stop offset="0.69" stop-color="white"/>
</linearGradient>
<linearGradient id="paint1_linear_1030_501" x1="35" y1="123.852" x2="91.4338" y2="173.803" gradientUnits="userSpaceOnUse">
<stop stop-color="white"/>
<stop offset="0.785" stop-color="white" stop-opacity="0.8"/>
</linearGradient>
<linearGradient id="paint2_linear_1030_501" x1="92.1686" y1="69.2787" x2="106.986" y2="146.214" gradientUnits="userSpaceOnUse">
<stop offset="0.235" stop-color="white"/>
<stop offset="1" stop-color="white" stop-opacity="0"/>
</linearGradient>
<radialGradient id="paint3_radial_1030_501" cx="0" cy="0" r="1" gradientUnits="userSpaceOnUse" gradientTransform="translate(77.2858 154.39) rotate(-22.9856) scale(67.8874 60.8091)">
<stop offset="0.39" stop-color="white"/>
<stop offset="0.93" stop-color="white" stop-opacity="0.42"/>
</radialGradient>
<radialGradient id="paint4_radial_1030_501" cx="0" cy="0" r="1" gradientUnits="userSpaceOnUse" gradientTransform="translate(120.269 54.8613) rotate(63.5751) scale(161.117 1163.14)">
<stop offset="0.445" stop-color="#18BAA7" stop-opacity="0"/>
<stop offset="1" stop-color="#18BAA7"/>
</radialGradient>
<linearGradient id="paint5_linear_1030_501" x1="193" y1="46.0664" x2="222.422" y2="46.0664" gradientUnits="userSpaceOnUse">
<stop stop-color="#34BB7A"/>
<stop offset="0.255208" stop-color="#18BAA7"/>
<stop offset="1" stop-color="#3164E4"/>
</linearGradient>
<linearGradient id="paint6_linear_1030_501" x1="193" y1="46.0664" x2="222.422" y2="46.0664" gradientUnits="userSpaceOnUse">
<stop stop-color="#34BB7A"/>
<stop offset="0.255208" stop-color="#18BAA7"/>
<stop offset="1" stop-color="#3164E4"/>
</linearGradient>
<linearGradient id="paint7_linear_1030_501" x1="193" y1="46.0664" x2="222.422" y2="46.0664" gradientUnits="userSpaceOnUse">
<stop stop-color="#34BB7A"/>
<stop offset="0.255208" stop-color="#18BAA7"/>
<stop offset="1" stop-color="#3164E4"/>
</linearGradient>
<clipPath id="clip0_1030_501">
<rect width="256" height="256" fill="white"/>
</clipPath>
</defs>
</svg>
